/* XPM */
static char *_ef330a091894324a0477cf418885ff9thJCExl67AT0Dd6t[] = {
/* columns rows colors chars-per-pixel */
"50 50 187 2 ",
"   c #3E4D6A",
".  c #43526E",
"X  c #465470",
"o  c #495772",
"O  c #4C5B76",
"+  c #7D5C6F",
"@  c #724F71",
"#  c #7A5C74",
"$  c #4F6D6D",
"%  c #516E6E",
"&  c #4C6071",
"*  c #536677",
"=  c #567372",
"-  c #5E7B77",
";  c #5D7978",
":  c #7F6574",
">  c #7F6975",
",  c #617E79",
"<  c #803B65",
"1  c #853D69",
"2  c #86446C",
"3  c #8A466E",
"4  c #87486F",
"5  c #89496F",
"6  c #914C6D",
"7  c #9A546F",
"8  c #894A70",
"9  c #914F70",
"0  c #945171",
"q  c #9A5571",
"w  c #9F5971",
"e  c #975F7F",
"r  c #A55C6F",
"t  c #A35B71",
"y  c #816674",
"u  c #866975",
"i  c #9D6577",
"p  c #99617F",
"a  c #A76174",
"s  c #AE6675",
"d  c #AB6579",
"f  c #AD697B",
"g  c #B06776",
"h  c #B16976",
"j  c #B36C7B",
"k  c #B7707C",
"l  c #BD747D",
"z  c #C0777E",
"x  c #C1787F",
"c  c #63827A",
"v  c #68897A",
"b  c #688B7B",
"n  c #6D957B",
"m  c #6E997C",
"M  c #71967B",
"N  c #BACF62",
"B  c #BBD165",
"V  c #BED36C",
"C  c #BFD470",
"Z  c #C0D46F",
"A  c #C0D470",
"S  c #C4D77B",
"D  c #C6D87F",
"F  c #5E6B82",
"G  c #647487",
"H  c #976181",
"J  c #9A6486",
"K  c #9C6788",
"L  c #9E6A8A",
"P  c #A46C87",
"I  c #A96C82",
"U  c #A26D8C",
"Y  c #A4718E",
"T  c #AB738B",
"R  c #B87681",
"E  c #BD7A84",
"W  c #A37390",
"Q  c #A97C93",
"!  c #B37D90",
"~  c #C27C84",
"^  c #778D8D",
"/  c #7A908F",
"(  c #7C9392",
")  c #7AA281",
"_  c #948E90",
"`  c #9B8A94",
"'  c #839897",
"]  c #8E9D93",
"[  c #859A98",
"{  c #BD828E",
"}  c #AC8197",
"|  c #AE859A",
" . c #BE8491",
".. c #B6889B",
"X. c #B38C9E",
"o. c #82AB85",
"O. c #86A394",
"+. c #8BA493",
"@. c #89AB95",
"#. c #91AD99",
"$. c #93B299",
"%. c #9ABA9C",
"&. c #8C95A2",
"*. c #949CA6",
"=. c #B58EA2",
"-. c #BA98AA",
";. c #A695B1",
":. c #B09CB4",
">. c #8FA2A0",
",. c #93A4A3",
"<. c #9CA8A7",
"1. c #9FAEA8",
"2. c #A9B7B1",
"3. c #ABB9B1",
"4. c #B7B6B2",
"5. c #C68187",
"6. c #C9868B",
"7. c #CB888D",
"8. c #D08D8F",
"9. c #C28692",
"0. c #C58B93",
"q. c #C98F96",
"w. c #D08E91",
"e. c #C99097",
"r. c #CB9399",
"t. c #D39395",
"y. c #D69798",
"u. c #D6999A",
"i. c #DB9C9B",
"p. c #C09FAE",
"a. c #D49EA1",
"s. c #D9A3A4",
"d. c #C4A6B4",
"f. c #C6ADB1",
"g. c #E2AEAF",
"h. c #E2B0B0",
"j. c #C7D881",
"k. c #C9DA86",
"l. c #CCDC8C",
"z. c #CEDD92",
"x. c #D1DF92",
"c. c #D1DF99",
"v. c #D0E096",
"b. c #D3E19D",
"n. c #C6D0AF",
"m. c #D1D3B3",
"M. c #DADEB9",
"N. c #D5E1A1",
"B. c #DAE4AD",
"V. c #DCE6B3",
"C. c #DFE9B4",
"Z. c #DFE7B8",
"A. c #DFE8B9",
"S. c #E2E9BC",
"D. c #BFC6C4",
"F. c #C3CCC6",
"G. c #D3C0C2",
"H. c #DCCFCE",
"J. c #CAD3C8",
"K. c #DFD3CF",
"L. c #DCD6D3",
"P. c #E1D5D3",
"I. c #E4DCD7",
"U. c #E5DDD8",
"Y. c #DCE6D8",
"T. c #E4EBC5",
"R. c #E6EDCA",
"E. c #E8EECA",
"W. c #E8F0CA",
"Q. c #E6E4DA",
"!. c #E9E7D8",
"~. c #EDF0D7",
"^. c #EEF1DC",
"/. c #F3F6DE",
"(. c #EDE8E3",
"). c #F0EDE5",
"_. c #F3F3E6",
"`. c #F5F6EB",
"'. c #F6F9EC",
"]. c #FBFAED",
"[. c #F8FBEF",
"{. c #FCFBED",
"}. c #FAFCED",
"|. c #F7F7F1",
" X c #F8F8F1",
".X c #F9FAF1",
"XX c #FBFDF1",
/* pixels */
"k.l.l.l.l.l.l.l.l.l.l.l.l.l.l.l.z.l.l.l.l.l.l.l.l.l.l.l.l.l.x.l.l.l.l.l.l.j.C A A C A A Z Z Z A V B.",
"l.l.l.l.l.z.l.l.z.l.l.l.l.z.l.l.l.l.l.l.l.z.l.l.l.l.l.l.l.l.l.l.l.l.l.l.l.j.V C A A C C Z Z V A B V.",
"l.l.l.l.l.l.l.l.l.l.l.l.l.l.l.l.z.l.l.l.l.l.l.l.l.l.l.l.l.l.l.l.l.l.l.l.l.j.V V V V V V Z Z Z Z B V.",
"l.l.l.l.z.l.l.l.z.l.l.l.l.l.l.l.l.l.l.l.l.l.l.l.x.l.l.l.l.l.l.l.l.l.N.R.R.R.T.T.T.R.T.T.T.R.c.B V V.",
"l.l.l.l.l.l.l.l.l.z.l.l.l.l.l.l.l.l.l.l.l.l.l.l.l.l.l.l.l.l.l.l.l.k.B. X_.`.`.`.`.`.`.`.`.|.M.Z B C.",
"l.l.z.l.l.l.z.l.l.l.l.l.l.l.l.l.l.l.l.l.l.l.l.l.l.l.k.k.k.k.k.k.k.j.B.XX].{.{.].].|.].`._.`.B.V V B.",
"l.l.l.l.l.l.l.l.l.l.l.l.l.z.l.l.l.l.l.l.l.l.l.l.k.v.S.A.A.A.A.A.V.S.m.3.3.3.2.2.2.3.2.J.`.|.B.B B V.",
"l.l.l.l.l.l.z.l.l.l.l.l.l.l.l.l.l.l.x.l.l.l.l.x.l.N. X X'.'.[. X`.].D.% = = = = = = $ <.].`.S.N B V.",
"l.l.k.k.k.l.l.k.l.k.l.k.l.l.k.l.k.l.k.k.l.l.l.k.k.N.XX X X X}. X`.{.F.= ; ; , ; , ; = 1. X|.V.V V V.",
"b.N.N.N.N.N.b.N.N.N.N.l.l.l.N.N.N.N.N.b.l.k.z.N.N.V.P.P.P.K.K.K.H.K.4.c c c c , , ; = 1.{.`.B.B V N.",
"`.`.'.'.`.|.`.`.'. X_.k.k.v. X`.|.'. X~.l.k.N. X XL.J L H 2 2 4 4 3 u o.o.o.M n v ; = 1.{.`.V.B C V ",
"`.`.'.'.`.'.`.`.`.'.^.l.k.v. X`.`.'. X^.k.k.b. X'.L.L L H 2 4 4 8 8 u o.o.m n n v ; = 1.]. XV.B C V ",
"`.`.`.`.`.`.`.`.`.'._.k.l.v.`.`.`.'.`.^.k.l.N.`.].P.U U J 4 8 5 3 3 u ) o.m n n v ; = 1.{.`.C.B V A ",
"`.`.' ' ' ' ' ' ' ' ,.`.'.Q.Y U Y W U =.'.'.L.Y U T j l ~ u.y.q.k l d 8 9 > m M , O o *.}.`.B.V V B.",
"'.`./ / / ( ( ( ( ^ [  X}.Q.L L L L J |  XXXP.J L P l l ~ i.i.8.l z d 4 3 y m m , O o *.]. XB.B B V.",
"`.`.( ( ( ( ( ( ( ( [ XX}.(.L L L L L | XXXXU.L U P l z 5.i.i.8.l l d 4 3 y m m , o . *.{. XV.B B C.",
"`.`.( ( ' #.#.#.O.O.+.-.-.-. . ... . ...-.-.=.d d f l l x 5.5.~ l l k s f i y + ` F.F.n.x.z.N.T.E.4.",
"`.`.( ( ( %.%.%.@.@.+.J J U r.e.e.e.r.9.K K K s s j l l l l l l l l l x x s 2 1 =.XXXXV.B N B.|.XX:.",
"`._.( ( ( %.%.%.@.@.+.L L U e.e.e.e.e.9.U U P s h h E l l l l l l k l l l d 3 1 X.'.`.V.B B N.`.{.:.",
"'.`.( ( ' $.$.#._ _ _ ! ! ! q.q.r.a.a.r.I I I w w a j k k l l E 6.7.~ l l d 5 2 X. X`.R.N.b.T.'.XX:.",
"`.`.( ( ( @.@.+.U L U e.e.e.e.q.r.h.h.s.l l f 3 4 0 g s h l l 5.i.i.e.l l d 8 1 =.}._._.`.`.`._.}.:.",
"'.`.( ^ / @.@.+.L L Y e.q.e.e.q.r.g.g.s.l R j 5 4 0 g h j l l 5.i.i.7.l l d 8 1 =.{.'.`._.`._._.}.:.",
"^.~.,.#.,.] ] ] Y Y T e.q.q.e.q.r.s.s.u.l l j 9 5 7 a a s l k ~ t.t.6.l l a 8 3 | Y.Y.Y._._._._.}.:.",
"l.l.`.`.).U U Y e.e.e.e.e.q.e.e.0.l l l l l l l l j 4 5 9 h s h s s s s f t 8 3 : = $ 1.{._._.`.}.;.",
"l.l.`. X`.L L U e.e.e.e.q.e.q.q.9.l l l R l l l x j 4 4 0 h s s s s s h h w 8 3 # ; = 1.].`._.`.}.;.",
"l.k.`.`._.L L U e.e.e.e.q.q.e.e.7.l l l z l l l l f 4 4 0 h h s h s s s j t 3 3 # ; = 1.]._._._.}.;.",
"k.l.`.`._.L L U 9. . .q.q.e.u.u.t.R l l z l l l l j 4 3 0 h s h s h t 8 8 y v M v ; = 1.}.`.V.A A B.",
"l.l.`.|._.L L U  .{  .e.q.e.i.i.w.l l l l l l l l j 4 4 0 h h s j f t 8 3 : m m v ; = 1.{.|.B.B B S.",
"l.l.`.'.).L L U { 9.{ e.e.e.i.i.y.l l l l l l l R d 4 4 0 h h h d h t 8 8 y m m v ; = 1.{.`.V.B B C.",
"l.l.`.`._.L L U { { { R R ~ ~ ~ ~ ~ l l z l ~ 7.w.E 4 8 5 q q 0 q 0 0 8 3 y m m c * & <.XX`.A.D D c.",
"k.z.`.|.).L L U 9.{ ! s s g l l l l l l z l ~ a.i.7.4 4 4 4 8 8 8 4 8 8 3 y m m - O X *.].`.S.k.l.l.",
"k.l.|.|.`.J J L 9.9.9.g g g R l l l l l x ~ ~ i.i.9.2 8 8 8 8 8 8 8 8 8 3 y m m - X   *.XX`.T.k.l.l.",
"l.l.T.T.T.-.d.d.I I I w w t l j k l l l l l E 8.8.E 4 5 5 0 0 0 0 0 9 3 6 # , - ^ *.&.4.E.T.B.k.l.l.",
"l.l.l.k.l.].XX).2 2 2 3 8 8 s h f l l l l l l l l f 4 4 9 t r r t r 7 5 8 @ O o *.XXXXS.j.l.l.l.l.l.",
"l.l.l.l.z.|.`.(.2 2 2 3 3 5 h s h l l l x l l l z f 5 4 0 t t t t r 7 5 3 @ O . &.XX XS.k.l.k.l.l.l.",
"l.z.l.k.l.^.^.!.H H e e p H a a s k k k k k k k k s 5 5 6 t t t t t q 5 3 # G F <./.^.S.k.l.l.l.z.l.",
"l.l.l.l.k.C V S `._._._.'.Q.2 5 5 5 5 5 5 5 5 5 5 5 5 8 9 t t t r t q 8 2 ..{. XS.l.l.l.l.l.l.l.l.l.",
"l.l.l.l.l.C V S '.`.'.`.}.I.2 3 5 5 5 5 5 5 5 5 8 5 8 8 9 t t t t r 7 3 @ ..XX`.T.j.l.l.l.l.l.l.l.l.",
"l.l.l.z.l.A V S `._.`._.`.I.2 3 5 5 5 5 5 5 8 8 8 5 8 8 9 t t t t r 7 3 1 .. X`.T.l.l.l.l.l.l.l.l.l.",
"l.l.C A A A C C j.D D D D k.I.I.U.I.!.G.5 5 5 r w w w 7 t t t 7 5 3 Q !.I.M.x.c.l.l.l.l.z.l.l.l.l.l.",
"l.l.A V A V A V V V V V V D '.'.'.'.}.K.2 5 5 r r w r w t r w 7 8 2 | }.].E.k.k.l.l.l.z.l.l.l.l.l.l.",
"l.l.V A A A A A C A A A V j.`.`.`._.'.K.2 5 9 r r a r r r r r 7 2 < Q '.`.E.k.l.l.l.l.l.l.l.l.l.l.z.",
"j.S A V A A A A C A A A V S N.v.B._.'.K.2 5 5 7 0 0 0 0 9 0 5 j f.f.n.V.V.N.l.l.l.l.l.l.l.l.z.l.l.l.",
"V V V A A A A A C A A A A V V B D _.'.K.4 5 5 5 4 4 8 4 4 4 2 } XXXXW.j.k.l.l.l.l.l.l.l.l.l.l.l.l.l.",
"A A A A A A A A A A A A C A A V k.`.'.K.< 2 2 2 2 2 2 2 2 2 < } XX XR.l.l.l.l.l.l.l.l.l.l.x.l.l.l.l.",
"A A A A A V A A A A A A C A A V j._.`.I.} | | | | | | } | | } -.W.R.V.l.l.l.l.l.l.l.l.l.l.l.l.l.l.l.",
"A A A A A A A A A A A A A A A V j.`._.'.'.'.'.'.'.'.'.'.'.'.].R.k.k.l.l.l.l.l.l.l.l.l.z.l.l.l.l.l.l.",
"A A A A A A A A A A V A A A A V j.'.`._._._._.'._.'._._.`.`.`.R.l.k.l.l.l.l.l.l.x.l.l.l.l.l.l.l.l.l.",
"A A A A A A A A A A A A A A A V j.^.^.^.^.^.^.^.^.^.^.^.^.^._.T.k.l.l.z.l.l.l.l.l.l.l.l.l.l.l.l.l.l.",
"A A A A A V A A A A A A A A A V V A V A A V V Z V Z Z V A l.l.l.l.l.l.l.l.l.l.l.l.l.z.l.l.l.l.l.l.z."
};
