/* XPM */
static char *killer_whale_g088dbaeb5_640__1_1679312746[] = {
/* columns rows colors chars-per-pixel */
"50 25 108 2 ",
"   c None",
".  c black",
"X  c #010101",
"o  c #020202",
"O  c gray1",
"+  c #040404",
"@  c gray2",
"#  c #060606",
"$  c #070706",
"%  c #060707",
"&  c #070707",
"*  c #070708",
"=  c gray3",
"-  c #080809",
";  c #090909",
":  c gray4",
">  c #0B0B0B",
",  c #0C0C0C",
"<  c #0E0E0E",
"1  c #0E0F0F",
"2  c gray6",
"3  c #101010",
"4  c #111111",
"5  c gray7",
"6  c #131313",
"7  c #131314",
"8  c gray8",
"9  c #151515",
"0  c #161616",
"q  c gray9",
"w  c #161718",
"e  c #171819",
"r  c #191919",
"t  c gray10",
"y  c #1B1B1B",
"u  c gray11",
"i  c #1D1D1D",
"p  c #1D1D1F",
"a  c #1E1E1E",
"s  c gray12",
"d  c #1E1F20",
"f  c #202020",
"g  c gray13",
"h  c #222222",
"j  c #232323",
"k  c #222224",
"l  c #232425",
"z  c gray14",
"x  c #252525",
"c  c #242426",
"v  c gray15",
"b  c #272727",
"n  c #252728",
"m  c #262728",
"M  c #282828",
"N  c #282A2B",
"B  c #2A2A2A",
"V  c gray17",
"C  c #2B2C2D",
"Z  c #2C2C2C",
"A  c #2D2D2D",
"S  c gray18",
"D  c #2D2E30",
"F  c #2E2F31",
"G  c #303133",
"H  c #3F4143",
"J  c #4C4D50",
"K  c #4C4E51",
"L  c #4E4F53",
"P  c #505255",
"I  c #515457",
"U  c #585A5D",
"Y  c #5C5E62",
"T  c #65676B",
"R  c #686A6F",
"E  c #696B6F",
"W  c #6F7276",
"Q  c #75777C",
"!  c #76797E",
"~  c #787B80",
"^  c #797C81",
"/  c #7B7E83",
"(  c #86898E",
")  c #888A90",
"_  c #898C92",
"`  c #8E9197",
"'  c #92959B",
"]  c #A3A7AE",
"[  c #A4A7AE",
"{  c #A7ABB2",
"}  c #ADB1B8",
"|  c #AFB2BA",
" . c #AFB3BA",
".. c #B1B4BC",
"X. c #B1B5BD",
"o. c #B2B5BD",
"O. c #B2B6BD",
"+. c #B5B9C0",
"@. c #BBBEC6",
"#. c #BEC2CA",
"$. c #BFC3CB",
"%. c #C0C4CC",
"&. c #C0C4CD",
"*. c #C1C5CD",
"=. c #C1C5CE",
"-. c #C2C6CE",
";. c #C2C6CF",
":. c #C5C9D1",
/* pixels */
"                                                                                                    ",
"                                                                                                    ",
"                                                                                                    ",
"                                                                                                    ",
"                                                = = =                                               ",
"                                            = = = @                                                 ",
"                                          = = @ = =                                                 ",
"                                  5 5 3 2 2 2 2 2 2 2                                               ",
"                  f a a a y u y y t t y t u y y y y t t t u                                         ",
"          Z V c M M M c c V b b b M z M z c z M c c c z z z c c b                                   ",
"      V Z Z Z Z Z A Z Z A A A A Z Z Z A Z A A A Z Z A Z S Z S Z Z A A A                             ",
"  a f f f f f f f f f f f f f f z f f z f z c c f z z z z z z z z z c j c j                         ",
"  5 8 5 5 5 y u 6 6 6 8 8 8 8 8 6 6 6 8 8 8 8 8 8 8 q 8 t t 6 8 q q q y q q q q 8                   ",
"@ @ @ . @ G ! J + @ @ @ @ @ & = $ $ $ = = @ = = $ & @ @ + $ > = = = = = = = > > > = &     = > > > 3 ",
". . * c R | :.( A E ^ L 3 . . . . . . . . . . + y k l a 6 = . . . . . . . . . . . . . . . . . O     ",
"  Y _ | &.&.$.+.O.-.&.%.` F . . . . . . . @ C ~ { X.X.| [ ' ! I m = . . . . . . . . . . . . . .     ",
"              &.$.O.#.$.&...T f $ . . . H ) X.&.&.&.-.-.                    . . . . . . . . .       ",
"                  K P / %.-.&.[ W y = 2 U                                             . . . .       ",
"                    m m             y y f                                               . . .       ",
"                      N               c Z A                                               . .       ",
"                                          c f u                                             . .     ",
"                                                                                                    ",
"                                                                                                    ",
"                                                                                                    ",
"                                                                                                    "
};
