/* XPM */
static char *aefd8e9a69604d38c67a90ac4b417a67PZZXebNhOskUDOm9[] = {
/* columns rows colors chars-per-pixel */
"50 50 160 2 ",
"   c #83847E",
".  c #91967E",
"X  c #959B7C",
"o  c #9CA47C",
"O  c #9FA979",
"+  c #A3AF74",
"@  c #A1AA7A",
"#  c #A6B276",
"$  c #A9B677",
"%  c #AEBC76",
"&  c #A5B079",
"*  c #B0BF76",
"=  c #B5BF79",
"-  c #BACC6F",
";  c #BDD16D",
":  c #B3C372",
">  c #B7C870",
",  c #BBCC72",
"<  c #B6C179",
"1  c #BED170",
"2  c #C1D56F",
"3  c #C5DB6E",
"4  c #C8DF6D",
"5  c #C0D470",
"6  c #C8D973",
"7  c #E7DD67",
"8  c #E9DF71",
"9  c #CAE26C",
"0  c #D2ED6A",
"q  c #D6F268",
"w  c #F9EF6A",
"e  c #ECE370",
"r  c #362487",
"t  c #3F2D8A",
"y  c #3E2A92",
"u  c #46358D",
"i  c #47398C",
"p  c #4A3B8C",
"a  c #503E8E",
"s  c #412D91",
"d  c #453292",
"f  c #493694",
"g  c #473991",
"h  c #4C3C93",
"j  c #4C418D",
"k  c #53468B",
"l  c #5A4D8C",
"z  c #5E5787",
"x  c #5E538A",
"c  c #4F4291",
"v  c #544393",
"b  c #5A4B92",
"n  c #5F5290",
"m  c #5B509A",
"M  c #62568F",
"N  c #665B8E",
"B  c #685E8D",
"V  c #615490",
"C  c #675892",
"Z  c #685C9B",
"A  c #705C96",
"S  c #6B618D",
"D  c #6F688B",
"F  c #726C8A",
"G  c #7D7A83",
"H  c #777289",
"J  c #766A98",
"K  c #7E6898",
"L  c #655BA7",
"P  c #695FA7",
"I  c #675DAA",
"U  c #6C63A9",
"Y  c #7A6EA6",
"T  c #736AAA",
"R  c #7C70AC",
"E  c #807F83",
"W  c #807C88",
"Q  c #826999",
"!  c #857CA3",
"~  c #8E7AA4",
"^  c #8072AD",
"/  c #868781",
"(  c #878881",
")  c #8B8D81",
"_  c #8D9081",
"`  c #95958E",
"'  c #8D8897",
"]  c #92839D",
"[  c #928C9E",
"{  c #8F84A1",
"}  c #8D85AB",
"|  c #9286A2",
" . c #928BAF",
".. c #8E87B4",
"X. c #9388B3",
"o. c #998DB9",
"O. c #9A93B2",
"+. c #9E93BA",
"@. c #A79EA8",
"#. c #A196BE",
"$. c #ACA4AA",
"%. c #AFA8AA",
"&. c #B1AAAB",
"*. c #BAB4AF",
"=. c #BBB5B5",
"-. c #D7A9A9",
";. c #DDACAB",
":. c #C4BEB6",
">. c #E6AEAA",
",. c #E6B2AB",
"<. c #E9B6AC",
"1. c #ECB9AD",
"2. c #F1BBAD",
"3. c #CAC184",
"4. c #CEC689",
"5. c #ECE58B",
"6. c #F0EA8E",
"7. c #EEEA9E",
"8. c #DDC3BD",
"9. c #DBD2BA",
"0. c #F6C1AF",
"q. c #FAC1AF",
"w. c #ECCDB4",
"e. c #E0DEBC",
"r. c #EFEAA1",
"t. c #F9F6AF",
"y. c #E1E1BC",
"u. c #E9E7BC",
"i. c #EEECBE",
"p. c #F0EFBF",
"a. c #FCFAB3",
"s. c #F3F2BE",
"d. c #A89DC4",
"f. c #CDC3D8",
"g. c #D8CFDF",
"h. c #DCD4DD",
"j. c #E3C9C1",
"k. c #E2DDC8",
"l. c #F7DAC6",
"z. c #F8DBC6",
"x. c #EFEDC0",
"c. c #E9E5CD",
"v. c #EEEACE",
"b. c #F4EDC1",
"n. c #FFE3CA",
"m. c #F1EECE",
"M. c #F4F3C0",
"N. c #F9F6C1",
"B. c #F6F9C2",
"V. c #FDFDC3",
"C. c #FFFFC9",
"Z. c #E6E1D1",
"A. c #E8E3D2",
"S. c #EDE9D1",
"D. c #DBD2E1",
"F. c #E4DCE5",
"G. c #ECE5E7",
"H. c #ECE4EA",
"J. c #F3ECEC",
"K. c #F7F0ED",
/* pixels */
"5 5 5 5 5 5 5 5 5 5 5 5 5 5 5 5 5 5 5 5 5 5 5 5 5 5 5 5 5 5 5 5 5 5 5 5 5 5 5 5 5 5 5 5 5 5 5 5 5 5 ",
"5 5 5 5 5 5 5 5 5 5 5 5 5 5 5 5 5 5 5 5 5 5 5 5 5 5 5 5 5 5 5 5 5 5 5 5 5 5 5 5 5 5 5 5 5 5 5 5 5 5 ",
"5 5 5 5 5 5 5 5 5 5 5 5 5 5 5 5 5 5 5 5 5 5 5 5 5 5 5 5 5 5 5 5 5 5 5 5 5 5 5 5 5 5 5 5 5 2 5 5 5 5 ",
"5 5 5 5 5 5 5 5 5 5 5 5 5 5 5 5 5 5 5 5 5 5 5 5 5 5 5 5 5 5 5 5 5 5 5 5 5 5 5 5 5 5 5 5 5 5 5 5 5 5 ",
"5 5 5 5 5 5 5 5 1 1 5 5 5 5 1 1 5 5 5 5 5 5 5 5 5 5 5 5 5 5 5 5 5 5 5 5 5 5 5 5 5 5 5 5 5 5 5 5 5 5 ",
"5 5 5 5 5 5 5 2 9 9 9 9 9 9 3 2 5 5 5 5 5 5 5 5 5 5 5 5 5 5 5 5 5 5 5 5 9 9 9 9 9 9 4 5 5 5 5 5 5 5 ",
"5 5 5 5 1 6 2 : n S B B S M . ( 3 5 5 5 5 5 5 5 5 5 5 5 5 5 5 5 5 5 9 9 V B B B B N F 4 4 5 5 5 5 5 ",
"5 5 5 5 5 2 5 : n B B B B N . . 3 5 5 5 5 5 5 5 5 5 5 5 5 5 5 5 5 5 9 9 b B B B B C F 9 3 5 5 5 5 5 ",
"5 5 5 5 1 0 9 , y i g i i d E E 0 9 9 9 9 9 9 9 9 9 9 9 9 9 9 9 9 9 q q y p i i i u x q q 9 2 1 5 5 ",
"5 5 5 2 , v v J B.u.u.u.u.x.%.&.l M M M M M M z M M M M M M M M M M k k B.u.u.u.u.u.9.k j H 9 1 5 5 ",
"5 5 5 2 < h f J C.B.B.B.B.V.$.$.t i i i p p p p p p p i p p i i i p r r V.M.B.B.B.V.y.i g F 9 1 5 5 ",
"5 2 2 2 , h h A 0.<.<.<.w.M.M.s.i.p.p.p.Z.h.h.h.h.h.h.h.h.g.s.i.p.p.i.i.B.B.>.<.<.1.-.g h F 9 1 5 5 ",
"5 5 5 2 , h h A 0.<.<.,.w.B.b.s.i.s.p.s.Z.g.h.h.h.h.h.h.h.g.i.i.p.p.i.i.M.M.,.<.<.1.-.c h F 9 1 5 5 ",
"5 5 2 2 , f f A q.1.1.,.w.B.B.B.s.B.s.s.A.D.h.h.h.h.h.D.h.h.M.s.M.M.s.B.M.B.>.<.<.1.-.g g D 9 1 5 5 ",
"5 5 5 5 1 1 1 % v Q Q 2.,.,.w.w.s.s.s.s.A.h.h.h.h.h.D.h.h.D.M.b.M.M.M.B.,.,.<.,.,.c S 2 3 1 2 5 5 5 ",
"5 5 5 5 1 3 2 : h K K 2.,.,.w.w.B.s.s.s.S.D.h.h.h.h.h.h.h.D.b.M.s.x.B.B.,.<.<.;.;.c S 9 9 2 5 5 5 5 ",
"1 1 2 1 2 2 2 2 1 & & a | V.b.p.s.M.s.s.Z.h.h.D.h.h.h.h.h.D.x.x.s.b.M.M.p.N.a C C 3 1 2 2 5 5 5 5 5 ",
"6 3 1 1 2 2 1 2 1 & & v | N.s.M.B.s.s.s.Z.D.h.h.h.h.h.h.h.D.x.M.s.M.M.M.s.s.a C C 2 , 2 2 5 5 5 5 5 ",
"1 1 1 3 1 6 2 1 3 $ # h { V.M.M.s.B.s.s.Z.h.h.h.h.h.h.h.h.D.M.x.s.M.s.s.M.V.u V M 9 2 5 5 5 5 5 5 5 ",
"1 1 2 1 1 1 1 1 6 $ $ h | V.M.M.B.s.s.s.M.s.s.x.M.M.s.M.M.M.M.M.M.s.N.s.N.N.i V V 9 2 5 5 5 5 5 5 5 ",
"3 1 3 1 2 1 2 1 > O O h { V.x.x.e.u.s.s.s.s.s.M.s.s.p.s.s.s.s.M.B.y.e.e.B.V.i V V 5 > 5 2 5 5 5 5 5 ",
"1 1 1 1 1 6 3 : v b b v | V.&.&.i @.V.V.b.M.M.s.M.M.M.M.M.M.x.M.V.v i i V.V.p b b b S 3 9 5 5 5 5 5 ",
"1 1 3 1 5 2 5 * v b b v { V.&.&.i @.V.V.s.M.M.b.M.M.M.M.M.M.M.M.V.b i i V.V.p b b b B 9 9 5 5 5 5 5 ",
"3 1 3 1 5 2 2 : n N C k | V.*.*.b &.s.V.M.M.s.M.M.x.M.p.M.M.M.s.V.A b b V.V.p b b B F 4 3 1 5 5 5 5 ",
"1 1 1 3 1 3 1 3 9 % $ h { V.B.s.M.M.M.M.M.M.M.s.M.M.M.M.M.M.M.s.s.s.s.M.B.N.i V M 9 2 2 5 5 5 5 5 5 ",
"6 1 1 1 1 1 1 1 - ` O h { V.p.M.b.M.s.s.s.M.M.M.M.s.M.M.p.M.b.M.s.p.M.M.b.N.i V V 5 : 2 2 5 5 5 5 5 ",
"1 1 3 3 1 1 1 < f v v v ~ n.z.l.l.b.B.s.B.s.B.s.M.M.B.s.s.B.B.s.s.n.l.l.z.n.i b b h M 4 4 2 5 5 5 5 ",
"1 1 1 1 3 3 1 < f v b j ~ n.z.z.l.n.N.s.B.M.M.M.B.s.s.N.N.N.s.N.s.l.l.l.z.n.i v b h M 4 4 2 5 5 5 5 ",
"1 3 1 3 1 3 1 : V S S S | j.8.8.<.k.9.y.9.y.y.y.e.y.y.9.e.e.e.e.c.8.8.8.8.w.M S S B H 6 3 2 2 5 5 5 ",
"1 1 1 1 1 1 1 3 9 9 9 9 O t j j j m U U I U U L I L L L P P P P U j p j d i q 9 9 9 4 5 5 5 2 5 5 5 ",
"1 6 1 1 3 1 1 1 5 5 2 2 & S N N b Z T T T T ! ! ] } .. .T T T Y R b b b D S 4 5 5 5 5 5 5 5 5 5 5 5 ",
"1 1 3 1 1 1 1 3 2 2 2 1 3 9 o o c L T T T I 3.3.w a.C.C.} U T T T b f h q 9 5 5 5 5 5 5 2 5 5 5 5 5 ",
"6 6 1 1 5 5 5 5 5 5 5 5 3 0 ` O k Z T T U I 3.3.w a.C.C.} U U T T b c c q 9 5 5 5 5 5 5 5 5 5 5 5 5 ",
"1 1 5 5 5 5 5 5 5 5 5 5 5 3 X X h Y o.O. ...4.4.e r.t.t.@. . .X.O.b h h 9 5 5 5 5 5 5 5 5 5 5 5 5 5 ",
"5 5 5 5 5 5 5 5 5 5 5 5 2 9 X X u $.V.V.V.V.6.6.8 8 7 7 a.V.V.V.C.v f f 0 5 5 5 5 5 5 5 5 5 5 5 5 5 ",
"5 5 5 5 5 5 5 5 5 5 5 5 > O ` ` R =.V.N.s.B.7.7.5.5.5.5.p.M.s.M.V.^ R R + @ 4 5 5 5 5 5 5 5 5 5 5 5 ",
"5 5 5 5 5 5 5 5 3 1 1 3 o y o...H.S.M.s.M.M.M.M.M.M.B.M.M.M.M.M.s.G.K.K.u h 9 5 5 5 5 5 5 5 5 5 5 5 ",
"5 5 5 5 5 5 5 5 1 1 1 3 o y o...J.S.s.s.b.M.M.M.m.M.m.M.x.M.M.M.s.F.K.K.u h 9 5 5 5 5 5 5 5 5 5 5 5 ",
"5 5 5 5 5 5 5 5 1 2 1 3 ` j ....F.c.s.s.M.M.M.s.M.M.M.M.M.M.M.M.s.h.G.G.i v 9 5 5 5 5 5 5 5 5 5 5 5 ",
"5 5 5 5 5 5 5 5 3 1 1 9 + g ..o.H.v.s.s.M.M.N.s.V.V.V.N.M.M.s.s.a.F.J.J.i a 9 5 5 5 5 5 5 5 5 5 5 5 ",
"5 5 5 5 5 5 5 5 1 1 6 1 % G | [ #.:.v.m.c.v.:.:.%.&.$.$.k.c.c.c.m.#.d.d.E W 3 5 5 5 5 5 5 5 5 5 5 5 ",
"5 5 5 5 5 5 5 5 1 2 2 1 1 1 _ _ s o.H.F.F.H.R ^ i p t t f.F.F.F.J.p s s 6 , 2 2 5 5 5 5 5 5 5 5 5 5 ",
"5 5 5 5 5 5 5 5 2 2 2 1 5 5 _ _ s o.H.F.F.H.^ R i i u t f.F.F.F.J.u s s 6 , 2 2 5 5 5 5 5 5 5 5 5 5 ",
"5 5 5 5 5 5 5 5 2 1 1 1 , ; ` @   [ #.+.#.+.' '   (     O.+.+.+.#./ E E , = , , , 5 5 5 5 5 5 5 5 5 ",
"5 5 5 5 5 5 5 5 5 , 1 < < : > > ;   u u a i X X - - 2 2 x h p p s - - , > : * < < 2 5 5 5 5 5 5 5 5 ",
"5 5 5 5 5 5 5 5 5 5 1 , , < : : : +   . .   + + > : > > . ) . ( ( : : : < < , , , 2 5 5 5 5 5 5 5 5 ",
"5 5 5 5 5 5 5 5 5 5 2 2 , = : = * > > > > > : > : * : * > > > > - * * * < < 2 2 2 5 5 5 5 5 5 5 5 5 ",
"5 5 5 5 5 5 5 5 5 5 5 5 , = = : * : > > > > : > * : * : > > > > - : : : < < 2 2 2 5 5 5 5 5 5 5 5 5 ",
"5 5 5 5 5 5 5 5 5 5 5 5 5 , , , , , - , - , - , - - ; , - , - ; - - - - - , 2 2 5 5 5 5 5 5 5 5 5 5 ",
"5 5 5 5 5 5 5 5 5 5 5 5 5 5 2 5 2 2 2 2 2 2 2 1 1 2 1 2 2 1 2 2 2 2 2 ; 2 2 5 5 5 5 2 5 5 5 5 5 5 5 "
};
