/* XPM */
static char *_6e6c212911a4d52fd27aa259402245eUPK4AWk6c8eWNSiO[] = {
/* columns rows colors chars-per-pixel */
"50 50 251 2 ",
"   c #474935",
".  c #574B35",
"X  c #57533C",
"o  c #79582A",
"O  c #684A3C",
"+  c #6C533C",
"@  c #515146",
"#  c #5A5546",
"$  c #675A49",
"%  c #765C4A",
"&  c #6E5E54",
"*  c #5F6650",
"=  c #686449",
"-  c #76644B",
";  c #6A6756",
":  c #6C6C5A",
">  c #766856",
",  c #746C5B",
"<  c #73735D",
"1  c #7B735C",
"2  c #79785C",
"3  c #766E64",
"4  c #6D7666",
"5  c #6D7069",
"6  c #737363",
"7  c #7B7463",
"8  c #7D7A64",
"9  c #757668",
"0  c #757B6B",
"q  c #7D7B6A",
"w  c #787E72",
"e  c #8D6938",
"r  c #8B5C51",
"t  c #A6594C",
"y  c #8E7049",
"u  c #876855",
"i  c #816C5A",
"p  c #956B54",
"a  c #83735D",
"s  c #887758",
"d  c #83795D",
"f  c #967959",
"g  c #AE7053",
"h  c #866D63",
"j  c #986E60",
"k  c #867466",
"l  c #8D7362",
"z  c #837B64",
"x  c #8A7B65",
"c  c #837D6B",
"v  c #8A7E6B",
"b  c #987A66",
"n  c #937C6A",
"m  c #877C73",
"M  c #987B73",
"N  c #A47866",
"B  c #B57B66",
"V  c #A97D75",
"C  c #B67D76",
"Z  c #7C826D",
"A  c #7D8477",
"S  c #95855A",
"D  c #8A8367",
"F  c #84826B",
"G  c #8B836C",
"H  c #97856A",
"J  c #8B906F",
"K  c #858373",
"L  c #8B8472",
"P  c #8C8A75",
"I  c #87857B",
"U  c #858B7C",
"Y  c #8B8C7C",
"T  c #948373",
"R  c #9B8574",
"E  c #948B73",
"W  c #9C8C73",
"Q  c #97837A",
"!  c #948C7B",
"~  c #9B8C7C",
"^  c #8D907B",
"/  c #9B9374",
"(  c #94927B",
")  c #9C927C",
"_  c #A68769",
"`  c #B78B6C",
"'  c #AE966E",
"]  c #A58877",
"[  c #AC8C7B",
"{  c #B58976",
"}  c #A79679",
"|  c #AB947D",
" . c #B59679",
".. c #BC947D",
"X. c #B4A37C",
"o. c #C38A77",
"O. c #CB9178",
"+. c #E29870",
"@. c #7E8B82",
"#. c #848C83",
"$. c #8B8D82",
"%. c #878C89",
"&. c #948D86",
"*. c #8A9286",
"=. c #8B928C",
"-. c #939383",
";. c #9D9483",
":. c #94968A",
">. c #9C968A",
",. c #9A9A88",
"<. c #899592",
"1. c #949B97",
"2. c #9C9C93",
"3. c #A98B83",
"4. c #BA8C82",
"5. c #A49583",
"6. c #AB9584",
"7. c #AB9C83",
"8. c #A69689",
"9. c #A49C8C",
"0. c #AC9C8A",
"q. c #B79888",
"w. c #A69A93",
"e. c #B79B96",
"r. c #9CA08A",
"t. c #97A19E",
"y. c #AAA28B",
"u. c #B4A58C",
"i. c #B9A689",
"p. c #ACA393",
"a. c #A9A699",
"s. c #B3A393",
"d. c #BBAA93",
"f. c #B6A798",
"g. c #BBAC9A",
"h. c #AFB195",
"j. c #B8B49B",
"k. c #BCB29D",
"l. c #979CA1",
"z. c #98A7A6",
"x. c #9EB4AE",
"c. c #A4AAA5",
"v. c #ABACA3",
"b. c #A5A9A9",
"n. c #B8ABA4",
"m. c #ACB3AB",
"M. c #B6B2A2",
"N. c #BCB3A3",
"B. c #BBB5AB",
"V. c #B9B8A9",
"C. c #A5ADB1",
"Z. c #A9B4B6",
"A. c #B7B9B6",
"S. c #C69987",
"D. c #D0908A",
"F. c #C49B93",
"G. c #DA9994",
"H. c #C8A689",
"J. c #C4AC8D",
"K. c #D7A88D",
"L. c #CEB18C",
"P. c #C1A394",
"I. c #C7A896",
"U. c #CBAC94",
"Y. c #C3AD9C",
"T. c #D6A897",
"R. c #C8B69A",
"E. c #CBB49C",
"W. c #D4B89A",
"Q. c #E7A48D",
"!. c #E2A59B",
"~. c #E3B59B",
"^. c #CB99A1",
"/. c #C6AAA3",
"(. c #D7A8A6",
"). c #C4B4A4",
"_. c #CBB4A2",
"`. c #CCBBA2",
"'. c #CAB7AB",
"]. c #C3BBAC",
"[. c #D2BDA4",
"{. c #D9B6A9",
"}. c #D3BCAB",
"|. c #D2AEB3",
" X c #C7BBB6",
".X c #D7BBB6",
"XX c #E5A7A1",
"oX c #E3B3A4",
"OX c #E4BAA8",
"+X c #E8B9B4",
"@X c #F6B8B0",
"#X c #BBC2BA",
"$X c #D4C29C",
"%X c #CAC3A7",
"&X c #CEC3AB",
"*X c #D4C2A4",
"=X c #DBC4A4",
"-X c #D7C9A4",
";X c #DBCBA5",
":X c #D4C3AB",
">X c #DBC4AB",
",X c #D5CAAD",
"<X c #DBCCAC",
"1X c #D6D0AF",
"2X c #DDD2AD",
"3X c #CDC3B2",
"4X c #CDC4B8",
"5X c #D5C5B4",
"6X c #D8C7B6",
"7X c #DBCCB4",
"8X c #D5C4BC",
"9X c #DCD2B4",
"0X c #D8D3BA",
"qX c #DBD3BB",
"wX c #E6C5A9",
"eX c #E3CAAC",
"rX c #E6D4AD",
"tX c #E7C8B5",
"yX c #E4CDBB",
"uX c #F6C6B9",
"iX c #E4DBB5",
"pX c #E2D5BB",
"aX c #E9D7B9",
"sX c #E3D9BC",
"dX c #F5D0B0",
"fX c #EBE1BD",
"gX c #F5E5BB",
"hX c #B6BCC2",
"jX c #C9BFC4",
"kX c #E9BBC0",
"lX c #B6C2C1",
"zX c #C9C6C6",
"xX c #D6CBC5",
"cX c #DAD5C7",
"vX c #C8D1D1",
"bX c #DAD8D6",
"nX c #E5CCC9",
"mX c #E3D4C3",
"MX c #E4DBC3",
"NX c #E8D9C7",
"BX c #F1D0CC",
"VX c #F4DAC9",
"CX c #E4DBD6",
"ZX c #EBE3C3",
"AX c #EAE6C9",
"SX c #F7E9C8",
"DX c #EEF1C9",
"FX c #E8E3D6",
"GX c #F9F3D4",
"HX c #D3E1E8",
"JX c #F8EFEB",
/* pixels */
"3 , 5 3 > 5 #.<.<.@.w 9 9 $.&.|.a.r & $ r . O % & > & r C O % x 3 v l 3.M V l.w b.<.%.I m k $ $   @ ",
"5 : 5 #.5 @.<.@.%.@.%.<.m &.^.e.& @ & r O % t r q I w.C V p r M 3.m j M w.^.e.e.M h m Q I #.c.9 m n.",
"5 : 3 6 5 <.<.<.@.<.l.C.C.C.^.+.t r BXjXA.m.~ a M M h > ~ { e.{ V M e.x.C.zX^.D.D.h V M l 3.m.1.A.=.",
"5 w 6 3 =.<.<.@.%.z.z.l.b.e.] D.C |.HXjXvXZ.8.8.f.v n M 4.D.XXt 3.C.Z.JXhXZ.jXkXkXe.M 8.M &.E 9 @.=.",
"5 0 A A w.<.=.%.@.l.z.C.hX(.r t kXjXjXC.m.A.e.R ) b -.w.p e.(.Q.{.zXbXzXA.|.e.^.|.|.n.|.&.3 , m c @.",
": 0 w <.<.<.#.1.x.Z.C.b.|.3.p S.BX|.(.(.e./.3.H E Q a.e.g G.).!.|.vXJX|.!.|.nXn.G.kXC V & & & 3.h m ",
"4 A 4 @.1.#.#.U c.t.v.1 3.B g { |.|.JX+X3.u R } T a.8.g @X!.G.G.G.^.^.^.V 4.F.F.D.V b % & $ @ h e.w.",
"5 w A <.1.z.:.,.v.v.0.g {.g g H hXjX+XXXC T W l ,.T l O.K.S.e.e.n.n.B.w.3 j N b k Q Q n.M h , - r h ",
"0 U @.%.t.z.z.v.z.a.E g P.l s A.A.V.'.>X} ' s S ;.7.m.a.H R.#XA.lXm.w.3.~ 7 m v >.! &.z.2.K v a ; $ ",
"0 %.=.:.t.l.z.9.A.B.H p _ S i #Xs.a.J._ _ e S y 7.j.d.M.#XA.lXlXA.N.w.nXn.;.1 ! 9.;.2.n.q.4.] L q 8 ",
"q w =.<.l.C.x.3..X] s +.[ f 6.h.g.u.S.u.S S _ A.A.V.V.j.#X#XzX#XB.g./.Y.N.g.; M E 5.n.(.a.n.s.F q q ",
", q 1.=.z.z.z.1.#Xf { Q.f o.i.M.f.].J.K.` ' H.>Xj.R.} h.#X#Xm.r.M.p.9.p.6.! I q.oXG.q.G.BXxXq.W U :.",
", %.=.$.2.c.a.>.N._ K.y S [ A.4XvX_.(...E. .o.W.q.d.u.j.j.k.j.h.s.8.a.f.f.m 0.f 3.] c - N b 3.! ~ >.",
"v q $.-.1.b.a.p.R T.g o e y.xX:X5X_.7X>XwX{.U.R.J.' H.U.W.L.u.X.T ~ ~ s.>.q M H z = ] D T < x ) ! ;.",
", U $.>.:.Z.a.s H O.e e f 3XxX5X4X}.&X>XdXOX4X[.6XW.wX{.>XJ.`.d.~ 0.s.9.3.>.5.].5.H b E u.~ T T v K ",
"c L ( :.2.3.S o e e +.e W >X}.E.cXwXW.OX>XxX<XcX,X4XeXcXBX}.5XwXP.k.).'.'.g.s.xX7.6.) H 6.l 5.! E c ",
"Y 1 P 1.a./ y o g K.J.| H CXmXOX>XyXeX[.cX$X0X:X`.&XqX5XR.*X:X:XMX>X'.Y.7.d.8XzX[..Xf.w._.+X] 7 ! ( ",
"I P 3 Y 8.o o s  .{ 4X4X .5XyXL.OXpXE.qXR.1X%X=X&X0X9XqX&X:X0XCXyX5X_.Y.6.F.BXnXxX'.).).e. .[ L f.a.",
":.P - 1 i R 7.,.h.O.d.CXR.*X}.yXW.,XrX*X*X1X2X*XsX9XW.W.*XU.L.*X`.d.{.!.q.P.OXuX+XxX6Xg.8.] oX[ S.n.",
":.U - x L ).} u.) /  .cX*XW.AX9XW.$XW.MXqXMXfX$X;XgXMXsXyXaXeX}.&X&X7XU.tXE.*X..O.{.H.u.].k.] R b w.",
"-.2.8 > n.F.T.Y.J / i.CXVXaX[.*XW.iXaXrX<XqX2X-XrXaXZXZXrXtXaXSXtXtX>X=X~.~.E.q.T.nX{.q.E.q.e.q.M q.",
"$.~ -.x M N.T.q.s.H 5.FXFX0XW.aX-X2X2X;X2XiXfXDXDXZXZXfXMXsXpXyXaXtX>XVX[.H.wX' +XJXoXQ.S.|.xX/...b ",
"q ^ m 6.f F.8X6Xg.} j.qXW.,XsX,XrX<XrX;X<XiXgXGXSXSXDXDXfXZXsXcXAXpXsX:XaXK.K.L.S.(.uXoXBXBX(.{.e.T ",
"F -.*.3.U./ M.).d.7.k.}.FXW.yX*XrX2X$X-X;XeXgXgXGXJXGXSXZXZXiXsXVXtXtXmX>X=XmXpX' ~.BX5XB o.o.B [ G ",
"L m :.2.c.N.g.B.T.| } wXSX*X<XaX=X<X2X<XrXdXgXGXJXJXGXgXgXrXrX7XaXyX*X`.eX<XVXyXi.o.XXCXxXR.0.H a a ",
"Y -.L ;.a.n.A.cXuX_ /  .`.7X$X$XaX$X-X<XiXgXSXSXGXGXDXgXfXiXsXpXNXsXsX5XVXAXU.=XJ.K.oXJXxX0.Q E W a ",
"c G ! P H / f.V.&X_ f iXJ.' i.,X=XVXDX<X-XrXrXgXDXDXfXfXfXiXAXAXsXNX5X7XJXNXW.uXR.OX@XCXxX8Xg.) Q D ",
"= > 7 L z S | p.u.y._ } 3XR.L.X.wXSXaXeXqX2X<XiXAXfXiXiXiX9XAXsXZXsXsX*XJXsXeXVXE.H q.T._.e.~ 9./ ;.",
"K P G F / ) 5./ N T.k.P.FXcXW.X.K.=XrXtXMX9XsX9X9X9XrX9X<XsX9X9XaXpXpX=X[.VX[.E.Y.H S.FXbX).] c ,.9.",
"7 P $.-.( ,.y.y._ ~.| nX4XcX:X=XE.yX,X7X7XaXeXaXAXAXcX<XpX9X9XMX2X1X1XpX=XwXCX'.y...tXCXCX X] 5.9.2.",
"x x L -.,.,.y.u.i.} ' E.'.y.7.i.W.7X&X[.qXE.%X$X,X9X1X<XW.eXrXAXFXmXFXCXH.AXnX3XS.Q.T.uXq.6.H ) a.2.",
"1 , 1 J ,.a.j.h.h.k.] H q.i.E.tXU.W.mXcX9XR.2XJ.H.*X<X=X;XOXtXtX%X=XNX`.U.mX}.}.oXVX+X0.f H D T Y ,.",
"h { ; k &.p.k.V.j.M.y.d.i.u.6XOXH.mX{.4Xi.J.H.L.&X*XFXcXNXdXNXmX5X}.&XJ.tXmX'.P.+XVXN ] p y.G z D ( ",
", h : n c m ;.p.V.V.V.d.} d.7.] ~.CXwXJ.R.wXW.J.&Xi.7XcX~.OXCXcXqX:Xu._.E.5XcX| D.O.` }.u.H 5.D , J ",
"8 8 Z H K L L K 8.a.zXxX`.U.i.6.}  .U.].].[.mXY.J.`.pXR.[ yXMXcXxX[.X.j.8XxX5X| H K.H mXf.x ) a.F , ",
"7 U q P c L ) y.) F ) P._.5.).j.R.N.).%Xu.d.U.u.d.J.i.} 5XxXNX3X%Xh.7.`.4XxXmX6.f OX].Y.) s s ! ( d ",
"> d 7 ! 9.K ! y.! | H d.6./ '.|.].0.s.N.#Xu.] ' } u.y.U.U.qX,Xu.5. .I.5X/.E.] s D.tX.X/.W x s d ( Z ",
"; 1 v L ! $.P D D G D L L ] f [ 7.3XxXd.X.} } 7./ } '.cXE ).d.i.[ =XT.E.{.q.H _.K.{ 8XB.) ( z , D F ",
"$ > { R Y -.) G F P / G ;.Y.i.u.).4Xy.7.k.i..XY.U.O.&XxXI.5X| ..H._.I.H.~.4.3.|.3.R 0.A.a.,.( z 2 K ",
"7 :.5.1 6 L L ( ( E ^ p.W N wX/.].p.y.N.N.0.zX4XCX{.8X].`.5.4.tX .].Y.e.[ '.NX X] a R B.a.9.J F q c ",
"$.8.3 3 ; 8 F J J P G ) s.V.p.w.G ! Y.f.6.N.4X4XI.q.'.4.[ f .._ s G.d.]  XbX4Xn.T.3 F a.n.r.*.P K v ",
"m 7 z 8 c d d E -.T D E ! p.B.M.p.7.6.0.n.e.B.4Xe..X{.uXs.p ] z k i o./.vXzX X X..R D ,.v.-.U K c ~ ",
"3 1 c c F 2 D < 1 D 1 D z d G ! 9.B.B.M.B.cX X X[ ] ..B V x _ s f G [ e.bXA.m.|.&.v ! ,.2.U Y A 8 !.",
"$ > 8 c F J F 8 D P s D E 8 z z 1 a n ) f.g.n ] a : > > 3 f Q.N _ .X X Xn.n.Z.n.9.q ;.! -.#.^ 2 I ] ",
"# ; ; 6 Z 2 F J K P J D G G F , z z i - + $ = ; % + y m s > ' ,.| ].xX'.5.c.b.c.2.J K ^ *.#.K 2 A 2 ",
"X # # # * = < 2 8 F z L P :.E ( P T ! 6 g ` - o.s u S.[ [ s e.9.q.g./.q.w.>.2.v.>.F Z Z U U ^ 2 , 1 ",
"# - = X     X * ; Z 1 2 s b G d k -.K 9 P 1 1 g g O e u H H ,.f e.B.w.m U I :.-.Y Z K : U A Z 4 < = ",
"  $ % = 2 = # @ @   u X X > d 2 K k o.Q D r f p e r $ % u p.U Q $.hXa.! c.L :.*.-.c Z < ^ Z 4 < * 4 ",
"X . + # 3 * , > * # , , A > F.I.3.@XF.[ V B BXC ..Y.b $ $ ; 2 ;.$.v.! m $.U =.:.U 9 6 ; q 6 : 6 ; 4 ",
". . = - # $ $ 3 h 4.{ u ;.5.w.>.G Q 3 6 & X $ v 9.n.;.3 z , 1 ,.2.$.1 $.K $.=.#.9 < = = * : : ; < 0 "
};
