/* XPM */
static char *ac430decda994848c6b82e64356b751bl5q9BghEq2ojfAQ9[] = {
/* columns rows colors chars-per-pixel */
"50 40 214 2 ",
"   c #030405",
".  c #070709",
"X  c #0D0D0D",
"o  c #0D0E12",
"O  c #0F1113",
"+  c #161614",
"@  c #1A1A14",
"#  c #14151B",
"$  c #28271C",
"%  c #16192A",
"&  c #1C1E2B",
"*  c #1B1E33",
"=  c #1E2326",
"-  c #1E212E",
";  c #242423",
":  c #2D2C22",
">  c #26272C",
",  c #242A2C",
"<  c #2E3128",
"1  c #353323",
"2  c #393828",
"3  c #232533",
"4  c #252B33",
"5  c #2B2F33",
"6  c #21253B",
"7  c #24283A",
"8  c #2B2E3F",
"9  c #2C3233",
"0  c #2D313A",
"q  c #33343B",
"w  c #343939",
"e  c #393D39",
"r  c #43412D",
"t  c #524D2F",
"y  c #474837",
"u  c #514F33",
"i  c #59573D",
"p  c #615D3D",
"a  c #6A653D",
"s  c #262A44",
"d  c #292E49",
"f  c #2A304E",
"g  c #343B43",
"h  c #32354A",
"j  c #383A49",
"k  c #333856",
"l  c #363D62",
"z  c #3D484A",
"x  c #3C4057",
"c  c #3D415B",
"v  c #3E4465",
"b  c #464948",
"n  c #545746",
"m  c #424552",
"M  c #484B57",
"N  c #41455F",
"B  c #455255",
"V  c #495357",
"C  c #49575B",
"Z  c #4B595D",
"A  c #525454",
"S  c #575A5B",
"D  c #656344",
"F  c #6B6947",
"G  c #726F4B",
"H  c #74714D",
"J  c #7A754C",
"K  c #60615D",
"L  c #7C7954",
"P  c #454964",
"I  c #454A67",
"U  c #4D5C61",
"Y  c #4C506C",
"T  c #585B6C",
"R  c #424A76",
"E  c #4B5176",
"W  c #545874",
"Q  c #565B7D",
"!  c #58666A",
"~  c #5B6C72",
"^  c #5E7176",
"/  c #676868",
"(  c #71706F",
")  c #65697B",
"_  c #617274",
"`  c #627479",
"'  c #757472",
"]  c #837D4E",
"[  c #817E57",
"{  c #888559",
"}  c #918C5B",
"|  c #99935D",
" . c #928F63",
".. c #989565",
"X. c #9D9968",
"o. c #908E73",
"O. c #A39E68",
"+. c #A7A36E",
"@. c #ABA875",
"#. c #B1AD75",
"$. c #B7B379",
"%. c #BEBA7D",
"&. c #4D5787",
"*. c #595E81",
"=. c #525C8C",
"-. c #535E91",
";. c #5C6287",
":. c #5C6596",
">. c #63698C",
",. c #656A8C",
"<. c #687D82",
"1. c #777986",
"2. c #646B93",
"3. c #646D9C",
"4. c #696F99",
"5. c #6E7390",
"6. c #6C729C",
"7. c #797D99",
"8. c #646EA2",
"9. c #6C75A3",
"0. c #6B75A7",
"q. c #6D76A9",
"w. c #7379A6",
"e. c #757DAC",
"r. c #757EB0",
"t. c #6D8286",
"y. c #6E848A",
"u. c #70878D",
"i. c #71888E",
"p. c #758E94",
"a. c #7D829C",
"s. c #7A9399",
"d. c #7A82AF",
"f. c #7781B2",
"g. c #7D85B6",
"h. c #7F87B8",
"j. c #7F88B9",
"k. c #848585",
"l. c #8D8E8F",
"z. c #808599",
"x. c #989897",
"c. c #B9B78A",
"v. c #A6A798",
"b. c #8287A2",
"n. c #829CA3",
"m. c #8C92AC",
"M. c #999BA6",
"N. c #8087B7",
"B. c #838AB3",
"V. c #828ABA",
"C. c #8C93B9",
"Z. c #949AB8",
"A. c #86A0A7",
"S. c #88A3AB",
"D. c #8DA9B0",
"F. c #97B5BD",
"G. c #A7A7A8",
"H. c #B2B3B2",
"J. c #B2B4B5",
"K. c #BDBEBE",
"L. c #C2BF8B",
"P. c #C5C182",
"I. c #C9C584",
"U. c #CCC98E",
"Y. c #C6C391",
"T. c #CFCDB2",
"R. c #8B94C2",
"E. c #959CC3",
"W. c #9FA6CC",
"Q. c #9DBDC5",
"!. c #9EBFC8",
"~. c #A3A9C8",
"^. c #A4AACB",
"/. c #ADB1CB",
"(. c #A5ADD4",
"). c #ACB5DA",
"_. c #B6BBD6",
"`. c #9FC0C8",
"'. c #A2C3CC",
"]. c #A7C9D2",
"[. c #BAC1DC",
"{. c #AED1DA",
"}. c #B2D6DF",
"|. c #9AD4E1",
" X c #A0D7E5",
".X c #A2D9E6",
"XX c #A7DCE8",
"oX c #AADEEB",
"OX c #B3D7E1",
"+X c #B6DBE5",
"@X c #B7DDE8",
"#X c #AEE1EC",
"$X c #B2E3EF",
"%X c #BCE3ED",
"&X c #B5E5F1",
"*X c #B8E7F3",
"=X c #BDEAF6",
"-X c #BFECF8",
";X c #C9C9C9",
":X c #C9CBD5",
">X c #D3D3D3",
",X c #D5D6DC",
"<X c #E2E1D3",
"1X c #C7CCE2",
"2X c #D6D8E1",
"3X c #C0E7F1",
"4X c #C3EAF4",
"5X c #C3EEF9",
"6X c #C6F1FC",
"7X c #C9F3FF",
"8X c #E3E4E7",
"9X c #EAEBEB",
"0X c #F3F3F3",
"qX c #FEFEFE",
/* pixels */
"7X7X7X7X7X7X7X7X7X7X7X7X7X7X7X7X7X7X7X7X7X7X7X6X4X].}.6X7X7X7X7X7X7X7X7X7X7X7X7X7X7X7X7X7X7X7X7X7X7X",
"7X7X7X7X7X7X7X7X7X7X7X7X7X7X7X7X7X7X7X7X7X7X7X=X` ! T _ '.7X7X7X7X7X7X7X7X7X7X7X7X7X7X7X7X7X7X7X7X7X",
"7X7X7X7X7X7X7X7X7X7X7X7X7X@X].@X7X7X7X7X7X7X7Xs./ <XT.v.S t.3X7X7X7X7X7X7X7X7X7X7X7X7X7X7X7X7X7X7X7X",
"7X7X7X7X7X7X7X5XOXS.y.t.y.w z z ` }.7X7X7X7X4XZ H.| i Y.T.' ! {.7X7X7X7X7X7X7X7X7X7X7X7X7X7X7X7X7X7X",
"7X7X7X7X7X}.<.B 5 O Z ! X   C ` = , n.].@X6X].A c.1 i %.| L.o.V ].7X7X7X7X7X7X7X7X7X7X7X7X7X7X7X7X7X",
"7X7X7X7X%XB 4 . , o = = q M j O w m # > z Z M n o.1 #.{ 1 #.U.o.V OX7X7X7X7X7X7X7X7X7X7X7X7X7X7X7X7X",
"7X7X7X7XD.w z = W a.m.m m ^.).T z ^.) 0 m.b.T j ; 2 ..r [ #.H c.L ! 4X7X7X7X7X7X7X7X7X7X7X7X7X7X7X7X",
"7X7X7X7Xp.O q Z._.).(.C.8 Y R.r.3 >.g.3 5.(.1X:XZ.T > $ | i p #.@.y Q.7X7X7X7X7X7X7X7X7X7X7X7X7X7X7X",
"7X7X7X7Xn.O b.(.R.V.h.h.>.& 9.N.j k V.h k V._.8X8X[.~.) > : { u +.D p.7X7X7X7X7X7X7X7X7X7X7X7X7X7X7X",
"7X7X7X7X<.m E.V.g.g.h.h.r.6 Q V.P v V.Q *.h.N.C.E.Z.2X8XJ.M @ H ..y Q.7X7X7X7X7X7X7X7X7X7X7X7X7X7X7X",
"7X7X7X%Xg >.V.g.g.h.g.g.g.>.6.g.e.e.V.g.N.N.g.g.g.g.E.2X9X2X7.$ 9 D.7X7X7X7X7X7X7X7X7X7X7X7X7X7X7X6X",
"7X7X7XF.4 w.g.g.g.h.h.h.h.V.g.g.h.N.g.g.N.N.g.g.h.g.g.E.,X9X8XM.9 n.7X7X7X7X7X5X7X7X7X7X7X7X7X7X7X7X",
"7X7X7Xi.g h.g.N.h.e.*.P Y 3.g.g.g.g.g.g.g.h.g.g.g.g.g.h.V._.8X9XM.0 S.7X7X7X7X7X5X`.p.D.=X7X7X7X7X7X",
"7X7X6XC 3 ;.e.g.>.3 .     o P e.g.h.g.N.N.g.g.g.g.h.g.h.h.V.^.,X8Xz.0 '.7X7X7XQ.Z j T g ~ -X7X6X7X7X",
"7X6Xy.O # = c d.P j E *.*.P d 2.V.g.g.V.g.g.g.V.e.E h Y f.g.N.C./.W.T B 4X3Xt.0 ) /._.a.# s.7X7X7X7X",
"7X3Xn.< Q 9.9.g.r.6.W Y Y >.e.V.g.g.g.g.g.g.g.6.h M 1.q P g.h.g.g.g.B.q t.Z z m.^.V.d.W g g %X7X7X7X",
"7X7X4Xq 7 h j Q N w / k.' b 0 ;.r.N.g.g.g.h.9.k 1.~.(.7.& 2.h.h.g.g.j.T o P B.C.g.g.g.g.9.- F.7X7X7X",
"7X6XOX9 ( ;Xv.; A ,XqXqXqX9Xk.; =.f.g.N.g.d.*.6.V.g.g.f.7 k e.h.j.g.j.6.= 4.j.g.g.g.g.g.f.6 u.7X7X7X",
"7X7Xp.A 0XqX0XK.>X9XqXqXqXqX0X/ 6 3.g.g.g.g.e.V.g.h.g.2.% d 8.h.g.g.g.d.- ;.g.g.h.g.g.g.f.d ` 7X7X7X",
"7X7XC x.qX>XA ;X/ 9 ,XqXqXqXqX_.& &.f.N.g.g.g.g.g.g.g.3.s 6 8.h.g.g.g.f.7 Q h.g.g.j.g.j.w.d ` 7X7X7X",
"7X6XV G.qXG.X G.e . K.qXqXqXqX;X> &.e.g.h.g.e.f.g.g.f.8.d d 8.g.g.g.g.d.- h :.3.q.f.g.0.&.* i.7X7X7X",
"7X7X! ( qX0XG.>Xv.k.0XqXqXqXqXx.% &.f.h.g.g.>.k v E &.R % k 0.h.g.g.j.4.= z - f v -.:.R 6 # `.7X6X7X",
"7X7XF.9 G.8X:XS l.8XqXqX0X0XK.9 k 2.f.h.g.g.g.6.P 7 % % s &.e.g.g.g.j.c U -X/.~ h 6 k l * ^ 4X7X7X7X",
"7X7X5XZ ; A w - 3 / G.K.J.o., & k k M M 6.g.e.q.e.e.3.-.-.8.g.g.g.j.,.- `.7X7X6XOXA.~ U p.=X7X7X6X7X",
"7X7X'.n } H r b q O @ , ; @ : i L +.$.J j 9.-.&.=.q.V.g.g.g.g.g.V.4.4 p.6X6X7X7X7X7X7X6X7X7X7X6X7X7X",
"7X7Xi.L #.$.%.#.X. .} } ..#.%.P.%.| +.+.e q.q.0.q.r.h.g.B.B.B.B.;.4 t.5X7X7X7X7X7X7X7X7X7X6X7X7X7X7X",
"7X7XD.D { 2 { $.P.I.P.P.P.$...F : X p } w e.j.m.M.v.v.c.c.c.+.A 0 n.6X7X7X7X7X7X7X7X7X7X7X7X7X7X7X7X",
"7X7X4X_ F J r 2 i F F i r $ + + 1 p } t K v.c.%.P.P.I.P.+.F 2 ! ].7X6X7X7X7X7X7X7X7X7X7X7X7X7X7X7X7X",
"7X7X7X3Xt.n J [ L F D a a J { | | [ t a %.I.P.P.$.O.J y e ~ !.7X7X7X7X7X7X7X7X7X7X7X7X7X7X7X7X7X7X7X",
"7X7X7X7X7X'.` n a a J { { J a t 1 r H ..| L F u y z ! S.+X7X7X7X7X7X7X7X7X7X7X7X7X7X7X7X7X7X7X7X7X7X",
"7X7X7X7X7X7X7X%X'.A.t.! b w , = , e b b Z ! y.D.'.%X7X7X7X7X7X7X7X7X7X7X7X7X7X7X7X7X7X7X7X7X7X7X7X7X",
"7X7X7X7X7X7X7X7X7X7X7X7X4X%X%X+X+X+X%X=X6X7X7X7X7X7X7X7X7X7X7X7X7X7X7X7X7X7X7X7X7X7X7X7X7X7X7X7X7X7X",
"7X7X7X7X7X7X7X7X7X7X7X7X7X7X7X7X7X7X7X7X7X7X7X7X7X7X7X7X7X7X7X7X7X7X7X7X7X7X7X7X7X7X7X7X7X7X7X7X7X7X",
"7X7X7X7X7X7X7X7X7X7X7X7X6X5X6X6X6X6X-X-X-X-X-X-X=X=X-X-X-X5X4X6X6X6X6X6X6X7X7X7X7X7X7X7X7X7X7X7X7X7X",
"7X7X7X7X7X7X6X-X&X#X#XXXXX.X.X|.|..X|.|.|.|.|.|.|.|.|.|.|. X|.|.|..X|..XXX#X#X&X*X-X6X7X7X7X7X7X7X7X",
"7X7X7X7X5XoX|.|.|.|.|.|.|.|.|.|.|.|.|.|.|.|.|.|.|.|.|.|.|.|.|.|.|.|.|.|.|.|.|.|.|.|.|.*X7X7X7X7X7X7X",
"7X7X7X7X6X$XXX|.|.|.|.|.|.|.|.|.|.|.|.|.|.|.|.|.|.|.|.|.|.|.|.|.|.|.|.|.|.|.|.|.|.|.#X*X7X7X7X7X7X7X",
"7X7X7X7X7X7X7X5X-X=X&X$X&X#XoXXXXX.X X.X X.X.X|. X X X XXX X.X.XXX#X#X#X#X$X*X=X7X6X7X7X7X7X7X7X7X7X",
"7X7X7X7X7X7X7X7X7X7X7X7X7X7X7X7X7X6X6X6X7X6X6X6X6X6X6X6X7X6X7X6X7X7X7X7X7X7X7X7X7X7X7X7X6X7X7X7X7X7X",
"7X7X7X7X7X7X7X7X7X7X7X7X6X7X7X7X7X7X7X7X7X7X7X7X7X7X7X7X7X7X7X7X7X7X7X7X7X7X7X7X7X7X7X7X7X7X7X7X7X7X"
};
