/* XPM */
static char *c14d6f5180534dd1a5e4102bbf9a6b79eNpxKrtUvFzLRIhT[] = {
/* columns rows colors chars-per-pixel */
"50 50 36 1 ",
"  c #E7AF63",
". c #E7AF64",
"X c #E7B063",
"o c #E7B064",
"O c #E7B165",
"+ c #E8B063",
"@ c #E8B163",
"# c #EBB762",
"$ c #ECB763",
"% c #EBB366",
"& c #EBB764",
"* c #E9B466",
"= c #ECB764",
"- c #EDB566",
"; c #ECB767",
": c #ECB863",
"> c #EDB964",
", c #ECB865",
"< c #EEB864",
"1 c #EEB965",
"2 c #EEBA65",
"3 c #EFB866",
"4 c #EFBB67",
"5 c #EFB868",
"6 c #EEB969",
"7 c #EFBB68",
"8 c #EFBB69",
"9 c #EFBA6A",
"0 c #F0B967",
"q c #F0BC67",
"w c #F1BA68",
"e c #F2BB69",
"r c #F0BB6A",
"t c #F0BB6B",
"y c #F2BB6B",
"u c #F0BC69",
/* pixels */
"1111u444444444444444444444444444444444444444444q04",
":1117444444444444444444444444444444444444444444qq4",
":$1::44444444444q4444qq44444444444444444444444u111",
"###1111444444444q4444qq444444444444444444444444qq1",
"&#&1114144444444q444444444444444444444444444444qqq",
"#:::111:44>4444444444444444444444444444444444444qu",
"&&&&:::411:4444444444444444444444444444444444444qq",
"&&:::1:1111:444444444444444444444444444444444444u1",
"&:&&#&$$111144444444444444444444444444444444441qqq",
"::&&&#$1:111:414444444444444444444444444444444uqq0",
"&1&&$&$$:1&11444444444444444444444444444444444444q",
"&&&&1$$1111::14444444444444444444444444444444444qq",
"&&====1=:1111114444444444444444444444444444444440q",
"=&$$===1:::111414444444444444444444444444444444444",
"===1====61:11714444444444444444444444444444444u1qq",
"==$$===w::1:11714444444444444444444444444444444q0q",
"&2&::&:&:1::11114444444444444444444444444444444qq4",
"&&&&2&2&116611114444444444444444444444444444444q04",
":&&&&&22::1:11174444444444444444444444444444441qq4",
":&;:;:;::::16717444444474444444444444444444444u41q",
":&::2:;2:17:717744177777444u44444444444444444444qq",
";:;:;::;:;7;177644wuuu77744u44444444444444444444q0",
":2:;:;:1;:;91u7u47uuuw67776144444444444444444444qq",
";:;:;:;;6:746u16uuuuuu7uuuuuuuuqqqq44444444444440q",
"2:=5===50011w1uwuuuuuu6wuuuuuuuuuuq444444444444qqq",
":833w63500w1u7uuuuuuuuuuuuuuuuuuuuq044444444444qu1",
";1633335006wttuuuuuuuuuuu9t1utuuuuuuu1u444444444q4",
"61=033306wwuuuuuuuuuuuuuuw7twuuuutu7u744444444440q",
"33335=www0wtuuuuuuuuuuuuuu6u6uuuuw77774444444444qq",
"33350006wtuwuuuuuuuuuuuuutu7uuuuuu9wu744444440qquq",
"353530w9twwuuuuuuuuuuuuuuw6u1utwuuuuu14444444qqqq0",
"3eweetuuuw9uuuuuuuuuuuuuu9uuu6uuutuuuu4444444qq444",
"wwwweeeeeeuwtuuuuuuuuuuuuuuu9ttut6u7677717w744441u",
"wwwyeeeeeewuuuuuuuuuuuuuuuuu79ut1u67667777uu4444qq",
"eywweeeeeeuwuuuuuuuwuuuwwttw7766;56w66767uuu44440q",
"eyyyeeeeeeeeuywuuuueetew6uuwu66;;6;:;6;691u14444qq",
"eyyeeeeeeeeeeeeeeeeeeeuwu66tu6;;&;;%;;;;66174q0q0q",
"yyyeeeeeeeeeeeeeeeeeeewu7q6665;&%;;;&O&;;:7144qqq4",
"eyeyeeeeeeeeeeeeeeeeeeuwu77w;;&%%&O#O.&%&;174qq044",
"eeeeeeeeeeeeeeeeeeeeeeyuu776;;%%%..O%%O%&;7140qq44",
"eeeeeeeeeeeeeeeeeeeeeeuq96;;&%&X& O.++XXO;;1771744",
"eeeeeeeeeeeeeeeeeeeeeeyu966;;&% .O OXX+%.;:1767744",
"eeeeeeeeeeeeeeeeeeeeeeeu995;&O%.. ..OX.+;;;7777444",
"eeeeeeeeeeeeeeeeeeeeeeuu995;;;%. O...&..O;;6774444",
"eeeeeeeeeeeeeeeeeeeeeeuu99975%%.XXO  X%&%5177w7744",
"eeeeeeeeeeeeeeeeeeeeeeyqtt66=%%.%X OOO%X%66u774444",
"eeeeeeeeeeeeeeeeeeeeeeyyt6665%%%%.&.%%*%&561uu7477",
"eeeeeeeeeeeeeeeeeeeeeeytttt655=%#%%&%%*;&5t1u77477",
"eeeeeeeeeeeeeeeeeeeeeeeeewtwtw==%&&%%&;5667797471u",
"eeeeeeeeeeeeeeeeeeeeeeeeeeuttt555;;;;5;67779t997u1"
};
