/* XPM */
static char *fb8d7be175a54e64cf285b5345a18871lXANFUff8WCrQLlQ[] = {
/* columns rows colors chars-per-pixel */
"50 50 23 1 ",
"  c #A5DDBF",
". c #A6DEBF",
"X c #A8E0BE",
"o c #A9E1BE",
"O c #AAE1BE",
"+ c #ADE5BC",
"@ c #AEE5BD",
"# c #AFE7BC",
"$ c #B0E8BB",
"% c #B1E8BB",
"& c #B1E9BB",
"* c #B0E8BC",
"= c #99D2C3",
"- c #99D3C3",
"; c #9AD3C3",
": c #9BD4C3",
"> c #9DD6C1",
", c #9CD5C2",
"< c #9ED8C1",
"1 c #A0D8C1",
"2 c #A3DBC0",
"3 c #A3DCC1",
"4 c #A5DEC0",
/* pixels */
"::::::::;>;;;;;;;;;;;;;;::::::::::::::::::::::::::",
":::::::::>;;;;;:;;;;::;;::::::::::::::::::::::::::",
"::::::::;;>>><><<>><1<>>;:::::::::::::::::::::::::",
"::::::::;:1&*+*#*+****13;:::::::::::::::::::::::::",
"::::::::;;3*#&&+*+#*##31;:::::::::::::::::::::::::",
"::::::::;;3*&++++#+##%31;:::::::::::::::::::::::::",
"::::::::;;1+XXXXOO4XXO11;:::::::::::::::::::::::::",
"::::::::;:1XXX  O4XXXX11;:::::::::::::::::::::::::",
"::::::::::;;;;;===;;;;;;::::::::::::::::::::::::::",
"::::::::::;;;;;===;;;;;;::::::::::::::::::::::::::",
"::::::::::;;::::;;::;;::::::::::::::::::::::::::::",
"::::::::::::::::;;::;;::::::::::::::::::::::::::::",
"::::::::::::::::::::::::::::::::::::::::::::::::::",
"::::::::::::::::::::::::::::::::::::::::::::::::::",
":::::::::::::::::::::::::::::::::::::::::::::::::;",
":::::::::::::::::::::::::::::::::::::::::;;;;;::;;",
"::::::::::::::::::::::::::::::::::::::::::;3XXXXX3",
"::::::::::::::::::::::::::::::::::::::::::>34OXXX3",
"::::::::::::::::::::::::::::::::::::::::;;:*O*##**",
"::::::::::::::::::::::::::::::::::::::::;;>*###***",
"::::::::::::::::::::::::::::::::::::::::;;;###*+**",
"::::::::::::::::::::::::::::::::::::::::;;;11><<11",
"::::::::::::::::::::::::::::::::::::::::;;;1>>1<>>",
"::::::::::::::::::::::::::::::::::::::::>;;;::;;;:",
"::::::::::::::::::::::::::::::::::::::::::::::::;;",
"::::::::::::::::::::::::::::::::;>::::::::::::::;>",
"::::::::::::::::::::::::::::::::::;;::::::::::::>;",
"::::::::::::::::::;;;;;;;;;;;;;;;;;;::::::::::::;:",
"::::::::::::::::::;;;;;;;;;;;;;;;;;;:::::::::::::;",
":::::::::::::::::;;;;;;;;;;;;;;;;;;;::::::::::::;>",
"::::::::::::::::;;;;:;;;;;;;;;;;:;;;::::::::::::::",
":::::::::::::::::>3+++++++++++++*++;::::::::::::::",
"::::::::::::::::;;3##+++#+#+#@+#+##::;::::::::::::",
"::::::::::::::::;;.%#++++#+#@@#+##+<:::::::::::::;",
":::::::::::::::::;2O+++++O++O++++++:::::::::::::>;",
"::::::::::::::::;>;;:;;;;;;;;;;;;:::::::::::::::1;",
"::::::::::::::::::;;===;;;;;;;;;;;;;;:::::::::::;;",
";;;;;;;:::::::::::;:;;;;;;;;;;;;;;;:::::::::::::;;",
";;;;;;;:::::::::::;;;;::;;;;;;;;;;;:::::::::::::;1",
">>>>>>:::::::::::::::;::;;;;;;;;;;;;::::::::::::;;",
"####&*.;::::::::::::::::::::::::::::::::::::::::;;",
"####&+X;::::::::::::::::::::::::::::::::::::::::<;",
"+#+#&+X>::::::::::::::::::::::::::::::::::::::::;;",
"#+#+##.;::::::::::::::::::::::::::::::::::::::::;;",
"4.XX X3;::::::::::::::::::::::::::::::::::::::::;<",
"::;:;;>;::::::::::::::::::::::::::::::::::::::::;;",
";;;;;;;:::::::::::::::::::::::::::::-:-=::::::::;;",
";:::::;:::::::::::::::::::::::::::-----=======::<:",
";:::::::::::::::::::::::::::::::-::3333 3333 13=:=",
":::::::::::::::::::::::::::::::::-= 3333X3  3X3==:"
};
