/* XPM */
static char *db7321c16e1f4baaab647f4a7c552f3evFYufwLnEalMLuos[] = {
/* columns rows colors chars-per-pixel */
"50 50 66 1 ",
"  c black",
". c #163741",
"X c #1B3B42",
"o c #235867",
"O c #2B5E69",
"+ c #4EC9E8",
"@ c #4FCAEB",
"# c #51C9EA",
"$ c #53CAEA",
"% c #51CCEB",
"& c #56CEEB",
"* c #51CAED",
"= c #53CBED",
"- c #50CBEF",
"; c #53CCED",
": c #50CCEE",
"> c #55CFEE",
", c #58CEEE",
"< c #55D0EE",
"1 c #56D2EE",
"2 c #59D1EE",
"3 c #5AD1EE",
"4 c #5BD3EF",
"5 c #5FD7EF",
"6 c #5BD8EF",
"7 c #5DD9EF",
"8 c #51CBF0",
"9 c #52CCF0",
"0 c #52CCF1",
"q c #54CEF0",
"w c #59CFF2",
"e c #55D0F0",
"r c #56D1F0",
"t c #57D3F1",
"y c #57D2F2",
"u c #59D2F1",
"i c #5BD7F0",
"p c #59D4F3",
"a c #5AD5F3",
"s c #5FD7F3",
"d c #5BD7F4",
"f c #5CD7F4",
"g c #5CD8F2",
"h c #5DD9F2",
"j c #5FD8F2",
"k c #5FD8F3",
"l c #5DD9F4",
"z c #61D7EF",
"x c #60D7F0",
"c c #61D7F0",
"v c #62DAF1",
"b c #61D9F2",
"n c #61D8F3",
"m c #65DAF1",
"M c #65DBF2",
"N c #65DCF2",
"B c #62D9F4",
"V c #61DAF4",
"C c #6CE0F3",
"Z c #6EE2F7",
"A c #74E6F8",
"S c #97E6F6",
"D c #ADEBF8",
"F c #F1FBFE",
"G c #FBFEFE",
"H c white",
/* pixels */
"bbbbbbbBbjbbzbmbbbbbbbbbbBbbbbBxbNNNmBbBjbbbbbbbbb",
"bbbbbbbbssbb5CZbbbbbbbbbbbbbbbbBjbbbjBbbbbbbbbbbbb",
"bbbbbbbBbbbbNCAbbbbbbbbjjbbbbxbBbbbbbbbbbjbbbbbjbb",
"bbbbbjBbbbbbmNCbbbbbbbbbbbbbBbbjBbbbbbbzbBbBbbbBbb",
"bbbbbbbbbbbbbbbbbbbbbbbbbbbbbxBxbbbbbbbbBbbjbbbbbb",
"bbbbbbbbbbbbbbbjbbSDbbbBbbbbbBBBbbbbbbbbbbbbbbjBbB",
"sbbbbbbbbbbbbbbbbbDHbbbbbbbbbbbbbbbBBbkbbjbjbjkkjj",
"sbbbbbbbbbbbbbbBbbbbbbBbbbbbbxxbbbBBBBBkjjjjiiuu11",
"xxbxbbbbbbbbbbbOXbbbbBjjbbbbbbbBkBkBdksuirrr9@0;@;",
"b7bbbbbbbbbbbbbX bbbbvljbbBbbkssitrr91;;9@9@;0@@8@",
"szsxbbbbbbbbbbbbbBjBbbkkbjiur>>;99@:*@98@9@0@9:e@9",
"zszbxbbbbbbbbbBsjjssiii1>;;@*;**e@::*98800e:@9:09;",
"5xzzzxxbbbbbssidurr;0@0090@0;9;@00@:@@00;0@0y0@@;@",
"xbbxxxssssuu1*1;;@;@0@;@@@0@;@90@@e@0e@@@0@@@::0@9",
"x55s533>>9*>#@*@;@;90@e@e@@ee@@9@e0:0@:e@09@0@:0e0",
"33&&&##@@***;@99@99@000e:@00@9@;e0@:@e:@e0@e@t@@0@",
"*#*@0@9e@e@000@09@FG@e00@0e@0@e:t@0@t:@e@:@0@e0:::",
"u>q@@00@:@0e@@0@09GHe:::@@@e@0::@@@0::00::@:0@@:@@",
",,@@@0:@::00e00e@;;@@@0@e@:0@t0@@0:e0@@0y@t@@00@e9",
",$++@@@@@0@0@@:@99@90@0000:@0@@00::@@0e@0:@0t@:0e@",
"*#**@@::0;@00@@0@r@e@0e@@@0:@y0@@e@000::@:0@::@:@0",
"##@#@0@:@00@@0t@0@;00@@et0@::@0:e00@@@0:@0e@0@0y0@",
"#@@#@@@e::;@::0@0@0@@@:0@0e:0@@0:@e@e@@t0t@0:@0@0e",
"*@*@0@0@:@0e:e@0@e@0e0:@:@@0@t@:::@00@:@:@0@@t@:@@",
"%;;0@00@0@0t@0t@e@0@@:@t@y0@e:0@@0:@0@@0@@e0y@@e::",
"#@@@@@0@::@@:@@::0@ty@0@@0@0::@00:@t@:t@0e@@@:@@0@",
"@@@9@0@9e:0@@@:0:::@0@0@:0:@@:@t0@@0t00@0@:00000e@",
";@9@;@0;@0@ty00@@00@0:@00@@ty@0@e@0@0@@0@e:@e@@@@e",
"@0@e0@e0:0@@::0@0t@00@e:@0@@00@0:@ee0@@9:@0@00000@",
"@@e0@:0@@00::e@0@@:@@0:::@t0@:@:::9@00e@:0::0e@000",
":0:@e@@e@y@t0@t@@0@yt@@0@y0@e@t@e@@@@0@e0@:@@@@@0@",
"0@@0@00@:@0@@0@:0:@0@:0:@0:::0@0@00t@@90090e;@etet",
"@@0@:0@@t@@e@0@e0@:0@:0@:0:@:@y:0:@t0@0e@00@@9tidi",
"0@e0:@0@@0@000:@@t@t@0y@0@@t:@0@@00@::e@@0e0@9tllt",
"0@0@@ee@0::@t@:::@:@0e@:eo.0e@@0:@@:@:0@00@:@9tddt",
"0e@000@0@t:0@:0@0@000@@:@. @@00:00t@t@@0@@009@;rte",
"@e@e@@e@0@@000@t@@:yt@@000e@0@0@@00@0:@09@0@9;@re@",
"@@00000@@t@@@:0@e@:@@:0:@0@0@0t@@0:@t@0:9999999@@0",
":::@@::0:@@0@00@00@00@0@e:@00t@:e::0@:@@@999@99@0@",
"@t:0e@:@0y00e@0e@0:t@:y@@@t@:@0@@@@y0@t0@r@r9@;9::",
"@ee@@e@0@:;000@::@t@:@:::@@:@0:@0:e@000@0etttr;@e:",
"0@0:0::e@:@0@e0e0@@00t@@00y::t@0@:@0@@;09tkldi9@@0",
"@00@@@@@ee@@@@0@:0@:@@0e@0@@0@t@0:@0e@e@eddikdp;@:",
"e@0e@0e@ypte;000@0y::00@@:e@00@:t@y@:@@;ediiddr@e@",
"0:@0091riddie@e000@@@00yt@:@0@:0@:@t@0@0ttdiiit@00",
"@:@e@0@djldle@:@@0e@0:@@@00te@0@0@@0r@9091iiit9;@e",
"e@e@e@9ddjidt0@e@::@:@::@0@:@0@:t@00099@;9eree@9e@",
":0@0@@rijddde@e@0t@0@t@@e0@00@t0@@0@@e@99@00@99@@0",
"::@t@0e1pddt@@0+e@e@:e::@@e@0@:@0@::00@e@e@:00@0e@",
"@0@00@e@eete@10e@0@00@0:0@@00t:@@::t@0@@00::@00@@0"
};
